<?xml version="1.0" encoding="UTF-8" standalone="no"?>
<svg width="400px" height="400px" viewBox="0 0 400 400" version="1.1" xmlns="http://www.w3.org/2000/svg" xmlns:xlink="http://www.w3.org/1999/xlink" xmlns:sketch="http://www.bohemiancoding.com/sketch/ns">
    <!-- Generator: Sketch 3.1.1 (8761) - http://www.bohemiancoding.com/sketch -->
    <title>Minesweeper</title>
    <desc>Created with Sketch.</desc>
    <defs></defs>
    <g id="Page-1" stroke="none" stroke-width="1" fill="none" fill-rule="evenodd" sketch:type="MSPage">
        <g id="Minesweeper" sketch:type="MSArtboardGroup">
            <g sketch:type="MSLayerGroup">
                <rect id="Rectangle-1" fill="#F1A257" sketch:type="MSShapeGroup" x="0" y="0" width="400" height="400"></rect>
                <g id="Minesweeper_flag" transform="translate(83.000000, 83.000000)" sketch:type="MSShapeGroup">
                    <g id="Group">
                        <g>
                            <path d="M0.0278289474,0 L234.972171,0 C234.987632,0 235,0.0123684211 235,0.0278289474 L235,234.969079 C235,234.987632 234.987632,235 234.972171,235 L0.0278289474,235 C0.0123684211,235 0,234.987632 0,234.969079 L0,0.0278289474 C0,0.0123684211 0.0123684211,0 0.0278289474,0 L0.0278289474,0 Z" id="rect1313_65_" fill="#FDFCFD"></path>
                            <path d="M234.969079,0 C234.984539,0 235,0.0154605263 235,0.0309210526 L235,234.972171 C235,234.987632 234.984539,235 234.969079,235 L0.0278289474,235 C0.0123684211,235 0,234.987632 0,234.972171 L234.969079,0 L234.969079,0 Z" id="path1341_65_" fill="#757575"></path>
                            <path d="M26.3076316,26.2828947 L208.692368,26.2828947 L208.717105,26.3076316 L208.717105,208.689276 L208.692368,208.717105 L26.3076316,208.717105 L26.2828947,208.689276 L26.2828947,26.3076316 L26.3076316,26.2828947 Z" id="rect1311_65_" fill="#B9B9B9"></path>
                        </g>
                        <g transform="translate(58.750000, 43.289474)">
                            <path d="M52.5626974,128.322368 L52.5626974,7.73026316 L64.9342105,7.73026316 L64.9342105,128.322368 L52.5626974,128.322368 L52.5626974,128.322368 Z" id="Shape" fill="#000000"></path>
                            <path d="M64.9342105,-0.386513158 L1.15953947,40.1973684 L64.9342105,80.78125 L64.9342105,-0.386513158 Z" id="Shape" fill="#FF0000"></path>
                            <rect id="Rectangle-path" fill="#000000" x="30.9210526" y="117.5" width="58.3078289" height="17.0065789"></rect>
                            <rect id="Rectangle-path" fill="#000000" x="3.09210526" y="129.868421" width="109.939803" height="21.7715132"></rect>
                        </g>
                    </g>
                </g>
            </g>
        </g>
    </g>
</svg>