<?xml version="1.0" encoding="UTF-8" standalone="no"?>
<svg width="400px" height="400px" viewBox="0 0 400 400" version="1.1" xmlns="http://www.w3.org/2000/svg" xmlns:xlink="http://www.w3.org/1999/xlink" xmlns:sketch="http://www.bohemiancoding.com/sketch/ns">
    <!-- Generator: Sketch 3.1.1 (8761) - http://www.bohemiancoding.com/sketch -->
    <title>Missile Command</title>
    <desc>Created with Sketch.</desc>
    <defs></defs>
    <g id="Page-1" stroke="none" stroke-width="1" fill="none" fill-rule="evenodd" sketch:type="MSPage">
        <g id="Missile-Command" sketch:type="MSArtboardGroup">
            <g sketch:type="MSLayerGroup">
                <rect id="Rectangle-1" fill="#588C2E" sketch:type="MSShapeGroup" x="0" y="0" width="400" height="400"></rect>
                <g id="Missile" transform="translate(170.000000, 140.500000) rotate(-30.000000) translate(-170.000000, -140.500000) translate(150.000000, 71.000000)" sketch:type="MSShapeGroup">
                    <path d="M2.84217094e-14,79 L2.84217094e-14,99 C2.84217094e-14,110.045695 6.328125,125.328125 14.1479463,133.147946 L20,139 L25.8520537,133.147946 C33.6657487,125.334251 40,110.048124 40,99 L40,79 L2.84217094e-14,79 Z" id="Rectangle-7" fill="#FFFFFF"></path>
                    <rect id="Rectangle-8" fill="#FFFFFF" x="0" y="49" width="40" height="20"></rect>
                    <path d="M9.5,39 L9.5,19" id="Line" stroke="#FFFFFF" stroke-width="3" opacity="0.499503255"></path>
                    <path d="M19.5,39 L19.5,-0.408866995" id="Line-2" stroke="#FFFFFF" stroke-width="3" opacity="0.499503255"></path>
                    <path d="M29.5,39 L29.5,10.4285714" id="Line-3" stroke="#FFFFFF" stroke-width="3" opacity="0.499503255"></path>
                </g>
                <g id="Missile-2" transform="translate(300.000000, 200.000000) rotate(-30.000000) translate(-300.000000, -200.000000) translate(280.000000, 130.000000)" sketch:type="MSShapeGroup">
                    <path d="M0,80 L0,100 C0,111.045695 6.328125,126.328125 14.1479463,134.147946 L20,140 L25.8520537,134.147946 C33.6657487,126.334251 40,111.048124 40,100 L40,80 L0,80 Z" id="Rectangle-7" fill="#FFFFFF"></path>
                    <rect id="Rectangle-8" fill="#FFFFFF" x="0" y="50" width="40" height="20"></rect>
                    <path d="M9.5,40 L9.5,20" id="Line" stroke="#FFFFFF" stroke-width="3" opacity="0.499503255"></path>
                    <path d="M19.5,40 L19.5,0.591133005" id="Line-2" stroke="#FFFFFF" stroke-width="3" opacity="0.499503255"></path>
                    <path d="M29.5,40 L29.5,11.4285714" id="Line-3" stroke="#FFFFFF" stroke-width="3" opacity="0.499503255"></path>
                </g>
                <g id="Missile-3" transform="translate(100.000000, 260.000000) rotate(-30.000000) translate(-100.000000, -260.000000) translate(80.000000, 190.000000)" sketch:type="MSShapeGroup">
                    <path d="M0,80 L0,100 C0,111.045695 6.328125,126.328125 14.1479463,134.147946 L20,140 L25.8520537,134.147946 C33.6657487,126.334251 40,111.048124 40,100 L40,80 L0,80 Z" id="Rectangle-7" fill="#FFFFFF"></path>
                    <rect id="Rectangle-8" fill="#FFFFFF" x="0" y="50" width="40" height="20"></rect>
                    <path d="M9.5,40 L9.5,20" id="Line" stroke="#FFFFFF" stroke-width="3" opacity="0.499503255"></path>
                    <path d="M19.5,40 L19.5,0.591133005" id="Line-2" stroke="#FFFFFF" stroke-width="3" opacity="0.499503255"></path>
                    <path d="M29.5,40 L29.5,11.4285714" id="Line-3" stroke="#FFFFFF" stroke-width="3" opacity="0.499503255"></path>
                </g>
            </g>
        </g>
    </g>
</svg>