<svg xmlns="http://www.w3.org/2000/svg" xmlns:xlink="http://www.w3.org/1999/xlink" version="1.1" id="Calque_1" x="0px" y="0px" width="16px" height="16px" viewBox="0 0 16 16" enable-background="new 0 0 16 16" xml:space="preserve">
<ellipse cx="27.594" cy="-0.328" rx="1.344" ry="1.547"/>
<path d="M13,4c-0.306,0-1.27,0.001-2.509,0.002C10.574,3.525,10.793,1.614,9,1.609C6.938,1.604,6.109,1.605,6.109,1.605  S4.356,1.46,4.497,4.009C2.965,4.011,1.843,4.013,1.843,4.013S1,3.979,1,5h13C14,5,14.125,4,13,4z M6.203,2.547  c0.797-0.047,2.828,0,2.828,0s0.638-0.035,0.505,1.457C8.282,4.005,6.87,4.006,5.601,4.008C5.572,3.696,5.518,2.587,6.203,2.547z"/>
<path fill="#000000" d="M24.5,14.5c-0.276,0-0.5-0.224-0.5-0.5V8c0-0.276,0.224-0.5,0.5-0.5S25,7.724,25,8v6  C25,14.276,24.776,14.5,24.5,14.5z"/>
<path fill="none" d="M7,14c0,0.276,0.224,0.5,0.5,0.5S8,14.276,8,14V8H7V14z"/>
<path fill="none" d="M10,14c0,0.276,0.224,0.5,0.5,0.5S11,14.276,11,14V8h-1V14z"/>
<path fill="none" d="M4,14c0,0.276,0.224,0.5,0.5,0.5S5,14.276,5,14V8H4V14z"/>
<path d="M12,6H3H2v9c0,0.553,0.448,1,1,1h1h7h1c0.553,0,1-0.447,1-1V6H12z M5,14c0,0.276-0.224,0.5-0.5,0.5S4,14.276,4,14V8h1V14z   M8,14c0,0.276-0.224,0.5-0.5,0.5S7,14.276,7,14V8h1V14z M11,14c0,0.276-0.224,0.5-0.5,0.5S10,14.276,10,14V8h1V14z"/>
</svg>