<?xml version="1.0" encoding="UTF-8" standalone="no"?>
<svg width="400px" height="400px" viewBox="0 0 400 400" version="1.1" xmlns="http://www.w3.org/2000/svg" xmlns:xlink="http://www.w3.org/1999/xlink" xmlns:sketch="http://www.bohemiancoding.com/sketch/ns">
    <!-- Generator: Sketch 3.1.1 (8761) - http://www.bohemiancoding.com/sketch -->
    <title>Calculator</title>
    <desc>Created with Sketch.</desc>
    <defs></defs>
    <g id="Page-1" stroke="none" stroke-width="1" fill="none" fill-rule="evenodd" sketch:type="MSPage">
        <g id="Calculator" sketch:type="MSArtboardGroup">
            <g sketch:type="MSLayerGroup" transform="translate(-20.000000, -20.000000)">
                <rect id="Rectangle-1" fill="#E9E9E9" sketch:type="MSShapeGroup" x="20" y="20" width="400" height="400"></rect>
                <rect id="Rectangle-16" fill="#333333" sketch:type="MSShapeGroup" x="0" y="0" width="340" height="340" rx="20"></rect>
                <rect id="Rectangle-17" fill="#999999" sketch:type="MSShapeGroup" x="160" y="160" width="140" height="140" rx="20"></rect>
                <rect id="Rectangle-18" fill="#999999" sketch:type="MSShapeGroup" x="160" y="0" width="140" height="140" rx="20"></rect>
                <rect id="Rectangle-20" fill="#FFFFFF" sketch:type="MSShapeGroup" x="0" y="0" width="140" height="140" rx="20"></rect>
                <rect id="Rectangle-19" fill="#999999" sketch:type="MSShapeGroup" x="0" y="160" width="140" height="140" rx="20"></rect>
                <path d="M76.1875,75.0625 C74.18749,77.3541781 71.7708475,79.1249938 68.9375,80.375 C66.1041525,81.6250062 63.0625163,82.25 59.8125,82.25 C53.1041331,82.25 47.4583563,79.6875256 42.875,74.5625 C38.2916437,69.4374744 36,63.1250375 36,55.625 C36,47.6666269 38.5728909,41.2396078 43.71875,36.34375 C48.8646091,31.4478922 55.6666244,29 64.125,29 C72.9583775,29 79.9270578,32.2187178 85.03125,38.65625 C90.1354422,45.0937822 92.6875,53.9374437 92.6875,65.1875 C92.6875,79.2292369 88.7500394,90.5103741 80.875,99.03125 C72.9999606,107.552126 62.6042312,111.8125 49.6875,111.8125 C45.3124781,111.8125 42.1875094,111.44792 40.3125,110.71875 C38.4374906,109.98958 37.5,108.812508 37.5,107.1875 C37.5,103.395814 40.4374706,101.354168 46.3125,101.0625 C48.8125125,100.895832 50.8333256,100.729168 52.375,100.5625 C58.9583662,99.7708294 64.1353978,97.3646034 67.90625,93.34375 C71.6771022,89.3228966 74.4374912,83.2292075 76.1875,75.0625 L76.1875,75.0625 Z M75.9375,55.25 C75.9375,51.0416456 74.7604284,47.6354297 72.40625,45.03125 C70.0520716,42.4270703 67.041685,41.125 63.375,41.125 C59.9583162,41.125 57.1875106,42.3645709 55.0625,44.84375 C52.9374894,47.3229291 51.875,50.56248 51.875,54.5625 C51.875,58.6875206 52.9999887,62.0520703 55.25,64.65625 C57.5000113,67.2604297 60.3749825,68.5625 63.875,68.5625 C67.3333506,68.5625 70.2083219,67.3020959 72.5,64.78125 C74.7916781,62.2604041 75.9375,59.0833525 75.9375,55.25 L75.9375,55.25 Z" id="9" fill="#222222" sketch:type="MSShapeGroup"></path>
                <path d="M202,75.9375 L258.0625,75.9375 C259.312506,75.9375 260.281247,76.3437459 260.96875,77.15625 C261.656253,77.9687541 262,79.1041594 262,80.5625 C262,82.0625075 261.656253,83.2083294 260.96875,84 C260.281247,84.7916706 259.312506,85.1875 258.0625,85.1875 L202,85.1875 C200.708327,85.1875 199.718753,84.7916706 199.03125,84 C198.343747,83.2083294 198,82.0625075 198,80.5625 C198,79.0624925 198.343747,77.9166706 199.03125,77.125 C199.718753,76.3333294 200.708327,75.9375 202,75.9375 L202,75.9375 Z M202,55 L258.0625,55 C259.312506,55 260.281247,55.3958294 260.96875,56.1875 C261.656253,56.9791706 262,58.1041594 262,59.5625 C262,61.0625075 261.656253,62.2083294 260.96875,63 C260.281247,63.7916706 259.312506,64.1875 258.0625,64.1875 L202,64.1875 C200.708327,64.1875 199.718753,63.8020872 199.03125,63.03125 C198.343747,62.2604128 198,61.1041744 198,59.5625 C198,58.0624925 198.343747,56.9270872 199.03125,56.15625 C199.718753,55.3854128 200.708327,55 202,55 L202,55 Z" id="=" fill="#222222" sketch:type="MSShapeGroup"></path>
                <path d="M241.890625,202.695312 L214.421875,261.523438 C213.578121,263.367197 212.796879,264.648434 212.078125,265.367188 C211.359371,266.085941 210.51563,266.445312 209.546875,266.445312 C208.109368,266.445312 206.835943,265.992192 205.726562,265.085938 C204.617182,264.179683 204.0625,263.054694 204.0625,261.710938 C204.0625,260.804683 204.484371,259.398447 205.328125,257.492188 L205.421875,257.304688 L232.84375,198.570312 C233.718754,196.664053 234.515621,195.351566 235.234375,194.632812 C235.953129,193.914059 236.79687,193.554688 237.765625,193.554688 C239.171882,193.554688 240.437494,194.007808 241.5625,194.914062 C242.687506,195.820317 243.25,196.945306 243.25,198.289062 C243.25,198.851565 243.156251,199.445309 242.96875,200.070312 C242.781249,200.695316 242.421878,201.570307 241.890625,202.695312 L241.890625,202.695312 Z" id="/" fill="#222222" sketch:type="MSShapeGroup"></path>
                <path d="M74.5625,225.75 L90.4375,218.8125 C90.8125019,218.645832 91.0937491,218.541667 91.28125,218.5 C91.4687509,218.458333 91.6458325,218.4375 91.8125,218.4375 C92.2291687,218.4375 92.5624988,218.593748 92.8125,218.90625 C93.0625012,219.218752 93.3749981,219.916661 93.75,221 L95.4375,226.25 C95.6041675,226.708336 95.7291663,227.135415 95.8125,227.53125 C95.8958337,227.927085 95.9375,228.229166 95.9375,228.4375 C95.9375,228.812502 95.7812516,229.124999 95.46875,229.375 C95.1562484,229.625001 94.66667,229.812499 94,229.9375 L77.125,233.5625 L88.625,246.5625 C88.9166681,246.854168 89.1458325,247.156248 89.3125,247.46875 C89.4791675,247.781252 89.5625,248.083332 89.5625,248.375 C89.5625,248.583334 89.3750019,248.864582 89,249.21875 C88.6249981,249.572918 88.1250031,249.979164 87.5,250.4375 L83.125,253.625 C82.6666644,254.000002 82.2291687,254.281249 81.8125,254.46875 C81.3958313,254.656251 81.0625012,254.75 80.8125,254.75 C80.5624988,254.75 80.2916681,254.625001 80,254.375 C79.7083319,254.124999 79.4375012,253.791669 79.1875,253.375 L70.4375,238.5 L61.75,253.375 C61.4583319,253.875002 61.1770847,254.229166 60.90625,254.4375 C60.6354153,254.645834 60.3750013,254.75 60.125,254.75 C59.8749988,254.75 59.5312522,254.635418 59.09375,254.40625 C58.6562478,254.177082 58.1875025,253.875002 57.6875,253.5 L53.3125,250.3125 C52.64583,249.854164 52.1562516,249.458335 51.84375,249.125 C51.5312484,248.791665 51.375,248.500001 51.375,248.25 C51.375,247.958332 51.4583325,247.656252 51.625,247.34375 C51.7916675,247.031248 52.0208319,246.729168 52.3125,246.4375 L63.9375,233.6875 L47.0625,229.9375 C46.39583,229.812499 45.8854184,229.614585 45.53125,229.34375 C45.1770816,229.072915 45,228.770835 45,228.4375 C45,228.229166 45.0416662,227.906252 45.125,227.46875 C45.2083338,227.031248 45.3333325,226.583336 45.5,226.125 L47.3125,221 C47.8958363,219.249992 48.4791637,218.4375 49.0625,218.4375 C49.3125012,218.4375 49.5729153,218.46875 49.84375,218.53125 C50.1145847,218.59375 50.3749988,218.687499 50.625,218.8125 L66.25,226 L64.4375,208.5625 L64.4375,207.9375 C64.4375,207.187496 64.6458313,206.677085 65.0625,206.40625 C65.4791687,206.135415 66.3333269,206 67.625,206 L73.125,206 C74.3750062,206 75.2083313,206.135415 75.625,206.40625 C76.0416687,206.677085 76.25,207.187496 76.25,207.9375 L76.25,208.5625 L74.5625,225.75 Z" id="*" fill="#222222" sketch:type="MSShapeGroup"></path>
            </g>
        </g>
    </g>
</svg>